<?xml version="1.0" standalone="no"?>
<!DOCTYPE svg PUBLIC "-//W3C//DTD SVG 20010904//EN"
 "http://www.w3.org/TR/2001/REC-SVG-20010904/DTD/svg10.dtd">
<svg version="1.0" xmlns="http://www.w3.org/2000/svg"
 width="2760.000000pt" height="560.000000pt" viewBox="0 0 2760.000000 560.000000"
 preserveAspectRatio="xMidYMid meet">

<g transform="translate(0.000000,560.000000) scale(0.100000,-0.100000)"
fill="#000000" stroke="none">
<path d="M650 5590 c-126 -27 -261 -133 -320 -252 -106 -216 -28 -477 180
-603 83 -50 155 -68 262 -63 l89 3 125 -260 c68 -143 124 -265 124 -272 0 -6
-30 -30 -67 -54 -84 -52 -224 -194 -285 -286 -134 -203 -192 -393 -192 -628 0
-235 56 -427 178 -613 58 -87 169 -207 248 -268 32 -25 58 -49 58 -54 0 -5
-37 -75 -81 -156 l-82 -146 -36 9 c-67 15 -201 7 -262 -16 -123 -47 -232 -156
-280 -279 -27 -70 -32 -211 -10 -287 44 -153 176 -280 331 -320 133 -35 287
-4 395 78 114 87 175 203 183 348 7 133 -33 242 -125 340 l-33 35 79 143 c43
79 83 147 88 152 5 5 30 0 61 -11 211 -80 457 -94 682 -39 95 23 268 101 341
154 27 19 53 35 57 35 11 0 362 -387 362 -399 0 -5 -19 -32 -42 -59 -93 -109
-168 -258 -216 -431 -24 -87 -27 -113 -27 -268 0 -95 -1 -173 -3 -173 -5 0
-387 -90 -403 -95 -12 -4 -26 9 -48 44 -83 129 -244 221 -385 221 -68 0 -165
-24 -227 -55 -70 -36 -160 -130 -199 -207 -156 -319 91 -688 445 -665 46 3
104 14 137 27 161 60 279 216 295 386 l6 63 136 31 c75 18 170 40 211 51 41
10 78 15 81 11 4 -4 21 -41 38 -82 47 -114 142 -254 240 -351 391 -391 1009
-437 1452 -108 82 61 212 195 264 274 126 190 189 402 188 630 -1 164 -40 341
-102 462 -11 23 -21 48 -21 55 0 7 121 91 268 187 246 160 269 172 288 160 12
-8 43 -29 70 -47 101 -68 256 -91 375 -56 221 65 368 296 331 520 -53 318
-411 490 -687 331 -101 -58 -186 -166 -219 -276 -20 -68 -21 -183 -1 -247 8
-27 11 -52 7 -55 -7 -6 -502 -327 -530 -343 -8 -5 -36 17 -80 65 -76 82 -198
176 -284 220 -32 16 -58 36 -58 44 0 8 16 56 34 107 36 96 98 267 256 708 121
338 153 424 159 432 3 4 38 0 76 -9 101 -22 336 -22 440 1 421 93 741 395 855
806 175 632 -251 1289 -904 1395 -278 45 -580 -23 -804 -182 -136 -96 -275
-248 -352 -385 -17 -32 -36 -58 -42 -58 -8 0 -197 67 -270 95 -15 6 -18 20
-18 74 0 234 -167 428 -399 464 -245 37 -485 -142 -523 -391 -35 -226 111
-452 336 -517 43 -13 84 -16 151 -13 82 3 101 8 166 41 75 37 120 73 174 139
l30 36 144 -54 c80 -30 146 -56 148 -58 2 -2 -4 -36 -14 -77 -23 -102 -22
-346 1 -449 32 -139 41 -119 -76 -167 -57 -23 -170 -71 -253 -106 -441 -187
-655 -277 -662 -277 -5 0 -24 26 -43 58 -154 260 -420 444 -739 512 -175 38
-431 18 -591 -45 -13 -4 -44 53 -144 265 l-127 270 49 51 c89 91 132 196 132
325 0 198 -133 380 -325 441 -54 18 -180 24 -235 13z m192 -196 c232 -78 241
-417 14 -515 -145 -62 -321 13 -370 159 -76 223 133 432 356 356z m2238 1
c148 -52 224 -228 161 -370 -65 -146 -234 -210 -376 -141 -211 104 -206 402
10 502 59 28 141 31 205 9z m1830 4 c176 -28 350 -114 482 -238 129 -121 212
-254 265 -428 24 -80 27 -102 27 -253 0 -151 -3 -173 -27 -253 -15 -48 -45
-122 -66 -165 -39 -76 -110 -182 -123 -182 -4 0 -24 33 -45 73 -49 93 -163
209 -253 256 -36 19 -66 35 -68 37 -2 1 15 30 38 64 127 185 106 432 -51 588
-94 94 -197 137 -329 137 -213 0 -384 -130 -448 -339 -40 -133 -8 -288 86
-414 14 -18 23 -34 21 -36 -2 -1 -34 -19 -70 -39 -114 -63 -205 -158 -264
-275 -14 -29 -29 -52 -33 -52 -13 0 -86 109 -124 183 -88 173 -121 404 -84
586 68 336 301 606 613 710 50 17 115 35 144 40 76 12 232 13 309 0z m-35
-573 c29 -13 69 -44 92 -70 179 -203 0 -507 -266 -452 -99 21 -170 84 -206
185 -61 173 77 361 265 361 47 0 79 -7 115 -24z m-3000 -742 c357 -68 665
-388 724 -755 16 -94 13 -249 -5 -337 -29 -140 -103 -301 -180 -390 l-31 -36
-28 57 c-56 113 -181 240 -287 290 -50 23 -58 37 -33 57 24 20 81 129 95 182
7 29 11 84 8 140 -3 78 -9 104 -36 161 -41 89 -90 148 -164 197 -364 243 -824
-97 -703 -520 15 -54 51 -124 71 -141 41 -34 37 -46 -25 -79 -113 -61 -213
-162 -274 -278 l-34 -64 -29 36 c-122 152 -194 361 -194 563 0 124 13 206 50
311 81 234 250 422 475 532 192 94 375 116 600 74z m3040 16 c176 -26 338
-166 383 -333 10 -35 9 -38 -21 -61 -52 -39 -167 -93 -263 -122 -82 -26 -103
-28 -254 -28 -151 0 -172 2 -254 28 -96 29 -211 83 -263 122 -30 23 -31 26
-21 61 44 162 207 308 374 332 83 12 237 12 319 1z m-1085 -238 c102 -153 257
-294 405 -369 28 -14 52 -27 53 -28 4 -4 -34 -112 -158 -455 -45 -124 -95
-261 -110 -305 -54 -152 -180 -498 -182 -501 -2 -1 -32 4 -68 11 -164 34 -344
29 -517 -16 -90 -23 -264 -104 -335 -155 l-50 -37 -28 29 c-15 16 -98 107
-184 201 l-157 173 48 60 c112 137 192 306 230 480 25 117 25 335 -1 445 -10
44 -20 91 -23 105 -5 28 -39 11 337 170 107 46 303 129 435 185 132 56 241
102 241 101 1 0 30 -43 64 -94z m-2037 -345 c59 -25 132 -104 149 -160 56
-198 -87 -381 -286 -365 -110 9 -198 74 -236 175 -60 162 32 334 198 369 67
13 109 9 175 -19z m85 -732 c87 -21 131 -45 205 -115 64 -60 116 -141 135
-212 l10 -38 -73 -45 c-283 -177 -667 -177 -951 -1 -82 50 -84 61 -33 166 59
119 194 225 319 249 76 15 318 12 388 -4z m3647 -199 c270 -125 187 -528 -108
-528 -208 0 -343 212 -253 397 66 134 228 193 361 131z m-1722 -570 c341 -102
585 -369 658 -719 50 -240 -15 -532 -159 -722 -44 -57 -58 -64 -68 -33 -29 91
-185 261 -287 311 -66 33 -72 40 -52 57 57 47 115 201 115 305 1 278 -263 502
-537 455 -185 -31 -337 -170 -379 -345 -18 -78 -18 -157 1 -230 15 -58 71
-161 100 -185 20 -16 13 -24 -41 -51 -106 -51 -238 -185 -286 -289 -13 -28
-27 -49 -33 -47 -21 7 -112 156 -148 240 -49 118 -69 219 -69 352 -1 171 27
288 103 435 128 249 356 420 644 484 111 25 325 16 438 -18z m-2961 -262 c232
-79 241 -416 14 -515 -144 -63 -321 13 -370 159 -76 223 133 432 356 356z
m2823 -289 c50 -25 105 -79 130 -130 29 -58 28 -194 -2 -251 -110 -207 -425
-189 -508 29 -25 65 -18 167 16 233 27 52 98 114 153 132 48 17 165 9 211 -13z
m-1983 -551 c105 -35 180 -142 181 -257 2 -206 -213 -343 -396 -253 -193 94
-212 351 -37 478 19 14 49 30 65 36 45 16 136 14 187 -4z m2107 -197 c82 -29
168 -89 212 -150 42 -57 76 -126 84 -169 l7 -35 -82 -48 c-99 -58 -180 -88
-290 -109 -220 -42 -457 -1 -642 111 -79 47 -79 48 -73 82 16 85 99 205 180
261 101 70 198 91 396 85 113 -2 147 -7 208 -28z"/>
<path d="M25625 4341 c-46 -21 -101 -79 -112 -119 -5 -15 -8 -531 -8 -1147 0
-1281 -6 -1194 90 -1390 106 -218 263 -350 479 -405 90 -23 302 -28 371 -9 56
16 129 91 145 149 20 75 -1 160 -54 218 -42 47 -73 56 -222 61 -134 6 -143 7
-189 36 -62 39 -126 117 -156 192 l-24 58 -3 582 -3 582 223 3 c212 3 225 4
260 26 132 82 102 299 -47 341 -23 6 -124 11 -237 11 l-198 0 0 334 0 334 -28
53 c-22 43 -38 59 -81 81 -64 34 -144 37 -206 9z"/>
<path d="M13369 3631 c-54 -11 -100 -42 -134 -90 l-30 -43 -3 -1030 c-2 -734
1 -1041 9 -1071 17 -63 83 -122 154 -138 109 -24 211 17 258 104 l22 42 5 695
c5 691 5 695 28 755 59 157 198 280 387 342 70 23 97 26 220 27 104 1 157 -4
205 -17 216 -58 366 -199 438 -412 l27 -80 5 -656 5 -656 30 -49 c90 -145 320
-134 394 19 21 43 21 55 21 664 0 386 -4 651 -11 698 -24 174 -81 339 -160
458 -155 236 -363 370 -664 424 -75 14 -182 17 -630 19 -297 1 -556 -1 -576
-5z"/>
<path d="M16589 3631 c-55 -11 -107 -48 -137 -99 l-27 -47 0 -1040 c0 -997 1
-1041 19 -1075 26 -50 46 -69 89 -92 88 -44 213 -29 274 34 65 67 63 40 63
765 0 552 3 668 15 722 63 268 343 446 670 428 194 -11 326 -66 446 -186 85
-85 125 -156 161 -288 21 -75 22 -102 27 -724 l6 -646 25 -35 c75 -110 258
-129 347 -36 66 71 63 31 63 735 0 691 -3 735 -56 905 -84 269 -281 491 -525
592 -206 85 -312 96 -934 95 -269 -1 -506 -4 -526 -8z"/>
<path d="M7958 3614 c-281 -43 -550 -202 -716 -423 -161 -213 -234 -452 -233
-761 0 -239 36 -395 133 -582 157 -302 438 -509 788 -584 188 -39 470 -26 647
32 151 49 348 170 410 251 35 45 43 125 18 176 -23 50 -86 104 -135 117 -72
19 -138 -4 -268 -94 -37 -26 -98 -55 -150 -72 -82 -27 -97 -29 -257 -29 -160
0 -175 2 -250 28 -257 90 -434 292 -489 560 -21 100 -21 304 0 405 61 298 271
520 545 578 53 11 109 15 199 11 204 -6 322 -57 481 -204 64 -59 85 -73 127
-82 82 -17 142 1 199 61 56 59 69 137 34 206 -41 81 -239 246 -378 316 -185
93 -462 128 -705 90z"/>
<path d="M10910 3624 c-463 -58 -827 -349 -963 -769 -44 -134 -60 -245 -60
-415 -1 -178 13 -276 55 -410 98 -308 312 -552 601 -685 305 -141 757 -139
1062 4 285 133 495 375 593 681 43 135 56 233 56 410 -1 356 -108 627 -338
856 -161 160 -340 257 -573 309 -67 16 -359 28 -433 19z m354 -414 c317 -81
527 -348 562 -715 14 -149 -36 -372 -111 -495 -84 -139 -175 -222 -320 -291
-101 -49 -193 -69 -323 -69 -131 0 -224 20 -337 75 -153 74 -257 179 -335 340
-62 126 -82 221 -82 380 0 250 67 419 232 586 71 72 101 94 180 133 52 26 124
53 160 60 100 22 281 20 374 -4z"/>
<path d="M20480 3615 c-494 -81 -851 -441 -935 -944 -26 -153 -17 -430 18
-562 54 -205 140 -362 280 -506 246 -254 579 -378 967 -360 252 12 553 119
718 254 59 49 75 83 70 154 -3 46 -11 66 -34 96 -38 46 -92 75 -154 81 -62 6
-107 -10 -196 -68 -79 -52 -208 -103 -319 -127 -87 -19 -279 -12 -375 13 -79
20 -192 71 -257 115 -75 51 -168 145 -214 216 -41 63 -109 237 -109 281 l0 22
838 0 c796 0 839 1 878 19 23 10 54 36 70 57 26 34 29 46 33 127 7 191 -39
409 -123 582 -139 283 -345 451 -653 531 -123 32 -368 42 -503 19z m365 -380
c252 -53 439 -256 499 -541 l14 -64 -709 0 -709 0 6 28 c18 80 67 200 108 265
106 170 282 284 496 320 60 10 231 5 295 -8z"/>
<path d="M23358 3614 c-480 -74 -845 -438 -933 -929 -22 -121 -22 -370 -1
-492 74 -419 362 -758 755 -888 249 -82 564 -85 798 -9 151 49 348 170 410
251 35 45 43 125 18 176 -23 50 -86 104 -135 117 -72 19 -138 -4 -268 -94 -37
-26 -98 -55 -150 -72 -82 -27 -97 -29 -257 -29 -160 0 -175 2 -250 28 -260 91
-435 293 -491 567 -23 116 -15 354 16 460 61 210 190 369 375 461 112 55 201
72 355 66 204 -6 322 -57 481 -204 64 -59 85 -73 127 -82 82 -17 142 1 199 61
56 59 69 137 34 206 -21 42 -150 169 -226 224 -230 165 -541 232 -857 182z"/>
</g>
</svg>
